<svg width="700" height="495" viewBox="0 0 700 495" fill="none" xmlns="http://www.w3.org/2000/svg">
<path d="M87.3165 491.717H633.959C651.295 465.156 734.477 332.829 683.9 304.678C627.756 273.346 638.731 265.234 640.003 120.979C641.434 -35.8406 548.551 -14.3693 395.071 41.7741C241.592 97.9175 248.908 29.6865 131.054 63.8815C13.678 97.7584 120.716 230.085 31.0141 328.535C-44.2149 410.921 53.5987 473.585 87.3165 491.717Z" fill="#FFE9D8"/>
<path d="M224.414 34.2989C224.414 34.2989 277.217 73.4243 371.055 35.0941C464.892 -3.07707 187.515 0.421954 224.414 34.2989Z" fill="#FFE9D8"/>
<path d="M311.89 390.404H199.126V491.716H311.89V390.404Z" fill="#FFC799"/>
<path d="M303.619 398.833H207.714V423.008H303.619V398.833Z" fill="#FFB273"/>
<path d="M303.619 429.211H207.714V453.386H303.619V429.211Z" fill="#FFB273"/>
<path d="M303.619 460.861H207.714V485.036H303.619V460.861Z" fill="#FFB273"/>
<path d="M255.588 416.328C258.223 416.328 260.359 414.192 260.359 411.557C260.359 408.922 258.223 406.785 255.588 406.785C252.953 406.785 250.816 408.922 250.816 411.557C250.816 414.192 252.953 416.328 255.588 416.328Z" fill="#FFE9D8"/>
<path d="M255.588 446.547C258.223 446.547 260.359 444.411 260.359 441.776C260.359 439.141 258.223 437.004 255.588 437.004C252.953 437.004 250.816 439.141 250.816 441.776C250.816 444.411 252.953 446.547 255.588 446.547Z" fill="#FFE9D8"/>
<path d="M255.588 480.106C258.223 480.106 260.359 477.97 260.359 475.335C260.359 472.699 258.223 470.563 255.588 470.563C252.953 470.563 250.816 472.699 250.816 475.335C250.816 477.97 252.953 480.106 255.588 480.106Z" fill="#FFE9D8"/>
<path d="M313.162 95.2136H126.76C120.716 95.2136 115.786 100.144 115.786 106.188V226.268C115.786 232.312 120.716 237.242 126.76 237.242H313.162C319.206 237.242 324.137 232.312 324.137 226.268V106.188C324.137 100.144 319.206 95.2136 313.162 95.2136Z" fill="white"/>
<path d="M126.76 228.972C125.169 228.972 124.056 227.699 124.056 226.268V106.188C124.056 104.597 125.329 103.484 126.76 103.484H313.162C314.753 103.484 315.866 104.757 315.866 106.188V226.268C315.866 227.858 314.594 228.972 313.162 228.972H126.76Z" fill="#FFE9D8"/>
<path d="M313.163 103.325H258.928C261.791 117.48 272.924 163.604 295.986 186.665H315.866V106.188C315.866 104.597 314.753 103.325 313.163 103.325Z" fill="#FFB273"/>
<path d="M295.985 186.665V198.912H315.548L315.866 186.665H295.985Z" fill="#FFC799"/>
<path d="M315.867 226.268V199.23L315.549 199.071H295.986C295.986 199.071 286.602 223.246 286.125 228.972L286.443 229.131H313.163C314.753 228.972 315.867 227.858 315.867 226.268Z" fill="#FFB273"/>
<path d="M127.078 103.325H181.313C178.45 117.48 167.317 163.604 144.255 186.665H124.374V106.188C124.374 104.597 125.646 103.325 127.078 103.325Z" fill="#FFB273"/>
<path d="M144.255 186.665V198.912H124.692L124.374 186.665H144.255Z" fill="#FFC799"/>
<path d="M124.374 226.268V199.23L124.692 199.071H144.255C144.255 199.071 153.639 223.246 154.116 228.972L153.798 229.131H127.078C125.646 228.972 124.374 227.858 124.374 226.268Z" fill="#FFB273"/>
<path d="M488.75 101.735H396.503C393.481 101.735 391.095 104.12 391.095 107.142V166.626C391.095 169.647 393.481 172.033 396.503 172.033H488.75C491.772 172.033 494.157 169.647 494.157 166.626V107.142C494.157 104.12 491.772 101.735 488.75 101.735Z" fill="#FFC799"/>
<path d="M494.157 111.914V107.142C494.157 104.12 491.772 101.735 488.75 101.735H396.503C393.481 101.735 391.095 104.12 391.095 107.142V111.914H494.157Z" fill="#FFB273"/>
<path d="M412.725 121.774H398.57C397.934 121.774 397.298 122.411 397.298 123.047V137.202C397.298 137.838 397.934 138.474 398.57 138.474H412.725C413.362 138.474 413.998 137.838 413.998 137.202V123.047C413.998 122.252 413.362 121.774 412.725 121.774Z" fill="#FFE9D8"/>
<path d="M437.537 121.774H423.382C422.746 121.774 422.109 122.411 422.109 123.047V137.202C422.109 137.838 422.746 138.474 423.382 138.474H437.537C438.173 138.474 438.809 137.838 438.809 137.202V123.047C438.809 122.252 438.173 121.774 437.537 121.774Z" fill="white"/>
<path d="M462.189 121.774H448.034C447.398 121.774 446.762 122.411 446.762 123.047V137.202C446.762 137.838 447.398 138.474 448.034 138.474H462.189C462.825 138.474 463.462 137.838 463.462 137.202V123.047C463.462 122.252 462.825 121.774 462.189 121.774Z" fill="#FFB273"/>
<path d="M486.046 121.774H471.891C471.254 121.774 470.618 122.411 470.618 123.047V137.202C470.618 137.838 471.254 138.474 471.891 138.474H486.046C486.682 138.474 487.318 137.838 487.318 137.202V123.047C487.318 122.252 486.682 121.774 486.046 121.774Z" fill="#FFE9D8"/>
<path d="M412.725 144.995H398.57C397.934 144.995 397.298 145.632 397.298 146.268V160.423C397.298 161.059 397.934 161.695 398.57 161.695H412.725C413.362 161.695 413.998 161.059 413.998 160.423V146.268C413.998 145.632 413.362 144.995 412.725 144.995Z" fill="#FFB273"/>
<path d="M437.537 144.995H423.382C422.746 144.995 422.109 145.632 422.109 146.268V160.423C422.109 161.059 422.746 161.695 423.382 161.695H437.537C438.173 161.695 438.809 161.059 438.809 160.423V146.268C438.809 145.632 438.173 144.995 437.537 144.995Z" fill="#FFE9D8"/>
<path d="M462.189 144.995H448.034C447.398 144.995 446.762 145.632 446.762 146.268V160.423C446.762 161.059 447.398 161.695 448.034 161.695H462.189C462.825 161.695 463.462 161.059 463.462 160.423V146.268C463.462 145.632 462.825 144.995 462.189 144.995Z" fill="white"/>
<path d="M486.046 144.995H471.891C471.254 144.995 470.618 145.632 470.618 146.268V160.423C470.618 161.059 471.254 161.695 471.891 161.695H486.046C486.682 161.695 487.318 161.059 487.318 160.423V146.268C487.318 145.632 486.682 144.995 486.046 144.995Z" fill="#FFE9D8"/>
<path d="M645.252 315.652H317.616V327.581H645.252V315.652Z" fill="#FFC799"/>
<path d="M619.009 327.581H337.656V492.353H619.009V327.581Z" fill="#FFC799"/>
<path d="M619.009 327.581H337.656V345.076H619.009V327.581Z" fill="#FFB273"/>
<path d="M568.75 134.816C589.129 134.816 605.649 118.296 605.649 97.9175C605.649 77.5388 589.129 61.0187 568.75 61.0187C548.371 61.0187 531.851 77.5388 531.851 97.9175C531.851 118.296 548.371 134.816 568.75 134.816Z" fill="#FFB273"/>
<path d="M568.751 125.114C583.771 125.114 595.948 112.938 595.948 97.9174C595.948 82.8969 583.771 70.7205 568.751 70.7205C553.73 70.7205 541.554 82.8969 541.554 97.9174C541.554 112.938 553.73 125.114 568.751 125.114Z" fill="#FFE9D8"/>
<path d="M560.162 109.846C559.844 109.846 559.526 109.687 559.208 109.369C558.73 108.892 558.889 108.096 559.367 107.619L567.796 100.303V81.2174C567.796 80.5813 568.273 79.9451 569.068 79.9451C569.705 79.9451 570.341 80.4222 570.341 81.2174V100.939C570.341 101.257 570.182 101.575 569.864 101.893L560.957 109.528C560.798 109.687 560.48 109.846 560.162 109.846Z" fill="#FFB273"/>
<path d="M462.667 286.388H355.787C350.38 286.388 346.085 282.093 346.085 276.686V217.839C346.085 212.431 350.38 208.137 355.787 208.137H462.667C468.074 208.137 472.368 212.431 472.368 217.839V276.686C472.368 282.093 468.074 286.388 462.667 286.388Z" fill="#FFC799"/>
<path d="M466.006 208.773C462.348 210.045 459.645 213.703 459.645 217.839V276.686C459.645 280.821 462.348 284.479 466.006 285.751C469.664 284.479 472.368 280.821 472.368 276.686V217.839C472.368 213.544 469.664 210.045 466.006 208.773Z" fill="#FFB273"/>
<path d="M431.017 306.746H417.021V253.624H389.028V306.746V315.016H431.017C433.243 315.016 435.152 313.107 435.152 310.881C435.152 308.654 433.243 306.746 431.017 306.746Z" fill="#FFB273"/>
<path d="M430.698 306.746H416.861V253.624H388.869V306.746C388.869 311.199 392.527 315.016 397.139 315.016H431.016C433.402 315.016 435.31 313.107 435.151 310.722C434.992 308.495 432.925 306.746 430.698 306.746Z" fill="#FFB273"/>
<path d="M435.152 310.881C435.152 308.654 433.243 306.746 431.016 306.746H417.02V253.624H407.478V306.746C407.478 311.199 411.136 315.016 415.748 315.016H431.175C433.243 315.016 435.152 313.107 435.152 310.881Z" fill="#FFA358"/>
<path d="M435.628 214.021H373.441C372.01 214.021 370.737 215.294 370.737 216.725C370.737 218.157 372.01 219.429 373.441 219.429H435.628C437.06 219.429 438.332 218.157 438.332 216.725C438.332 215.135 437.06 214.021 435.628 214.021Z" fill="#FFB273"/>
<path d="M605.808 290.682H500.996V315.811H605.808V290.682Z" fill="#FFB273"/>
<path d="M598.969 273.028H490.818V290.523H598.969V273.028Z" fill="#FFC799"/>
<path d="M604.854 251.079H501.315V273.028H604.854V251.079Z" fill="#FFC799"/>
<path d="M604.854 265.393H501.315V273.028H604.854V265.393Z" fill="#FFB273"/>
<path d="M93.0426 411.239L94.7921 411.557C96.8597 405.831 98.9273 396.925 95.7464 387.7C90.3388 371.795 87.794 351.756 77.456 336.805C63.4599 316.288 60.12 271.755 60.12 271.755C60.12 271.755 43.102 307.063 54.7124 340.463C66.3228 373.863 80.1598 382.611 87.1579 389.131C94.633 395.97 94.474 404.877 93.0426 411.239Z" fill="#FFC799"/>
<path d="M93.3607 411.239L94.7921 411.557C96.8597 405.831 98.9273 396.925 95.7464 387.7C90.3388 371.795 87.7941 351.756 77.456 336.805C63.46 316.288 60.12 271.755 60.12 271.755C60.12 271.755 50.7362 319.469 61.5514 336.169C72.5256 353.028 73.0027 348.893 80.796 364.797C88.5893 380.702 91.134 385.314 93.5197 394.539C95.2693 400.424 94.315 407.104 93.3607 411.239Z" fill="#FFB273"/>
<path d="M102.108 424.281C102.108 424.281 105.607 419.032 103.539 399.629C101.472 380.225 95.9049 361.616 99.0859 340.304C102.267 319.151 125.329 265.234 125.488 261.735C125.647 258.236 131.69 323.604 119.603 349.688C107.674 375.772 106.084 384.678 106.561 398.356C106.879 411.875 106.084 422.849 104.812 426.03L102.108 424.281Z" fill="#FFC799"/>
<path d="M104.652 384.996C105.925 393.744 106.402 415.533 104.175 420.782C104.016 421.259 103.698 420.941 103.38 420.145C104.016 416.487 104.652 410.125 103.539 399.628C101.472 380.225 95.9049 361.616 99.0859 340.304C102.267 319.151 125.329 265.234 125.488 261.735C125.488 261.735 121.511 306.268 109.742 337.123C101.313 359.072 103.539 376.249 104.652 384.996Z" fill="#FFB273"/>
<path d="M114.672 420.145C114.672 420.145 104.493 392.312 121.511 368.137C138.37 344.121 165.567 313.107 166.044 300.861C166.044 300.861 173.201 359.231 151.094 375.612C128.986 391.994 113.559 394.539 117.376 419.986L114.672 420.145Z" fill="#FFC799"/>
<path d="M138.37 363.843C113.718 383.724 111.81 406.786 115.627 417.442C115.945 418.237 116.422 418.714 117.217 419.032C113.877 394.539 129.146 391.835 151.094 375.612C173.202 359.231 166.045 300.861 166.045 300.861C166.045 300.861 163.023 343.962 138.37 363.843Z" fill="#FFB273"/>
<path d="M84.2946 426.825L78.728 406.626C58.052 333.147 0 330.761 0 330.761C6.04377 332.034 37.535 356.05 42.4654 377.362C44.6921 387.382 55.0301 394.539 64.0957 399.31C70.6166 402.65 75.388 408.694 77.4556 415.851C79.2051 421.895 80.1594 427.302 80.1594 427.302L84.2946 426.825Z" fill="#FFC799"/>
<path d="M52.8034 378.316C59.6424 391.358 68.39 396.606 76.1833 398.356C53.5987 332.988 0 330.761 0 330.761C1.27237 331.079 3.33998 332.193 6.20281 333.942C17.3361 340.145 40.8749 355.413 52.8034 378.316Z" fill="#FFB273"/>
<path d="M128.191 409.171H67.4353C60.1192 409.171 54.7116 415.692 55.984 422.849L66.7991 484.241C67.5944 488.536 71.2524 491.717 75.7057 491.717H119.603C124.056 491.717 127.714 488.536 128.509 484.241L139.324 422.849C140.915 415.692 135.348 409.171 128.191 409.171Z" fill="#FFC799"/>
<path d="M139.324 417.76C137.893 412.989 133.598 409.331 128.191 409.331H67.435C62.0274 409.331 57.5741 412.989 56.3018 417.76H139.324Z" fill="#FFB273"/>
<path d="M128.191 409.171H112.764C120.08 409.171 125.487 415.692 124.215 422.849L113.4 484.241C112.605 488.536 108.946 491.717 104.493 491.717H119.921C124.374 491.717 128.032 488.536 128.827 484.241L139.642 422.849C140.915 415.692 135.348 409.171 128.191 409.171Z" fill="#FFB273"/>
<path d="M536.941 205.91C542.19 206.864 567.001 211 571.931 214.499C576.067 217.361 596.265 276.527 592.13 279.549C587.836 282.571 562.548 285.433 562.548 285.433L565.41 306.746L536.464 313.266C529.466 314.857 522.309 315.016 515.311 313.744L490.977 309.29L495.907 247.739L463.462 266.348C461.076 267.62 458.213 266.666 456.941 264.439L422.269 204.638L432.129 200.025L461.871 235.652L490.499 212.908C490.499 212.908 497.02 208.455 520.718 206.387L536.941 205.91Z" fill="#D35473"/>
<path d="M431.016 200.661C431.016 200.661 425.927 190.323 424.177 189.846C422.428 189.369 424.018 193.981 424.018 193.981C424.018 193.981 417.815 189.21 412.885 189.846C407.954 190.482 421.951 199.389 423.382 204.16C423.382 204.319 431.334 200.661 431.016 200.661Z" fill="#FFA683"/>
<path d="M458.372 277.799H509.903C512.607 277.799 514.992 275.572 514.992 272.71V242.014C514.992 239.31 512.766 236.924 509.903 236.924H458.372C455.668 236.924 453.282 239.151 453.282 242.014V272.71C453.282 275.572 455.509 277.799 458.372 277.799Z" fill="white"/>
<path d="M486.046 277.799H529.624C532.01 277.799 533.919 275.891 533.919 273.505V273.982C533.919 271.596 532.01 269.688 529.624 269.688H486.046C483.66 269.688 481.751 271.596 481.751 273.982V273.505C481.911 275.891 483.819 277.799 486.046 277.799Z" fill="white"/>
<path d="M519.923 269.688V272.71C519.923 275.413 517.697 277.799 514.993 277.799H510.062C512.766 277.799 514.993 275.572 514.993 272.71V269.688H519.923Z" fill="#FFC799"/>
<path d="M481.751 266.825C485.616 266.825 488.749 263.692 488.749 259.827C488.749 255.962 485.616 252.829 481.751 252.829C477.887 252.829 474.753 255.962 474.753 259.827C474.753 263.692 477.887 266.825 481.751 266.825Z" fill="#FFE9D8"/>
<path opacity="0.42" d="M561.275 258.236L555.391 232.948L566.683 262.531C567.637 265.075 566.206 267.938 563.502 268.415L533.919 275.095L557.14 266.03C560.321 264.916 562.23 261.576 561.275 258.236Z" fill="#8E253E"/>
<path d="M562.07 285.592L527.398 288.614L526.921 276.686L563.502 268.415L562.07 285.592Z" fill="#D35473"/>
<path opacity="0.42" d="M548.711 290.682C549.506 291 550.46 301.02 551.255 310.085L564.933 306.905L562.071 285.592L527.398 288.614C527.398 288.614 547.12 290.046 548.711 290.682Z" fill="#8E253E"/>
<path d="M527.398 285.751C527.398 285.751 521.354 287.66 513.72 280.185C512.925 279.39 513.402 277.958 514.674 277.958L526.921 277.799L527.398 285.751Z" fill="#FFA683"/>
<path d="M562.548 476.13L545.371 475.812C542.031 464.043 525.808 339.509 525.808 339.509L504.496 384.996L514.993 475.812L498.929 475.971C498.929 475.971 473.8 397.402 473.8 381.179C473.8 368.774 486.364 328.376 492.249 309.926L492.726 309.767L514.993 313.903C521.991 315.175 529.148 315.016 536.146 313.426L562.23 307.541C565.093 341.577 562.548 476.13 562.548 476.13Z" fill="#383952"/>
<path opacity="0.35" d="M562.548 476.13C562.548 476.13 563.821 414.738 563.661 364.798V364.638C563.661 363.525 563.661 362.412 563.661 361.458C563.661 360.98 563.661 360.503 563.661 360.185C563.661 359.549 563.661 358.913 563.661 358.277C563.502 336.646 563.184 317.72 562.548 307.541L551.256 310.086L556.663 475.971L562.389 476.13H562.548Z" fill="#61648A"/>
<path d="M510.54 475.971L514.835 475.812L504.497 384.997L525.809 339.509L494.636 383.883L510.54 475.971Z" fill="#61648A"/>
<path d="M500.201 475.812C496.384 483.446 478.412 487.263 478.412 487.263C478.412 487.263 477.14 489.49 479.048 492.353C481.116 495.216 499.883 493.625 502.269 493.148C504.655 492.671 506.245 490.762 506.245 490.762C506.245 490.762 507.836 492.512 508.631 492.989C509.585 493.466 514.357 492.512 514.357 492.512C515.47 489.49 514.516 477.721 514.197 475.812H500.201V475.812Z" fill="#2A2B3D"/>
<path d="M546.485 475.812C542.668 483.446 524.695 487.263 524.695 487.263C524.695 487.263 523.423 489.49 525.331 492.353C527.399 495.216 546.167 493.625 548.552 493.148C550.938 492.671 552.528 490.762 552.528 490.762C552.528 490.762 554.119 492.512 554.914 492.989C555.868 493.466 560.64 492.512 560.64 492.512C561.753 489.49 560.799 477.721 560.481 475.812H546.485V475.812Z" fill="#2A2B3D"/>
<path d="M534.873 191.437V205.751L526.444 211.795L520.718 206.228L520.877 200.343C521.514 200.502 522.309 200.502 523.104 200.502C528.671 200.502 533.283 196.526 534.555 191.278C534.714 191.437 534.714 191.437 534.873 191.437Z" fill="#FFA683"/>
<path d="M538.372 182.053C536.623 180.303 534.714 181.735 534.714 181.735C534.714 181.735 534.714 181.735 534.714 181.894C529.784 180.781 522.786 175.532 522.786 175.532C518.173 178.395 511.175 180.94 511.175 180.94V188.415C511.175 195.254 516.424 200.82 522.945 200.82C528.511 200.82 533.124 196.844 534.396 191.596C538.69 191.914 539.963 183.802 538.372 182.053Z" fill="#FFA683"/>
<path d="M534.873 197.003V191.437C538.691 191.437 539.963 183.961 538.213 182.212C536.464 180.462 534.555 181.894 534.555 181.894C534.555 181.894 534.555 181.894 534.555 182.053C529.625 180.94 522.786 178.236 522.786 178.236C516.742 181.735 511.176 181.099 511.176 181.099C509.426 180.621 502.746 178.395 502.905 169.647C503.223 160.9 526.921 150.562 539.963 164.876C545.211 170.283 548.233 194.618 534.873 197.003Z" fill="#6D3744"/>
<path d="M523.104 200.661C522.309 200.661 521.673 200.502 520.877 200.343L520.718 206.228L524.376 209.727V202.729C533.919 202.729 534.555 191.119 534.555 191.119C533.283 196.685 528.671 200.661 523.104 200.661Z" fill="#F48260"/>
<path d="M534.715 181.735C533.92 181.735 533.284 181.417 532.488 181.099C532.647 184.121 532.806 191.596 528.83 195.572C527.876 194.299 525.649 191.755 523.423 191.278C521.355 190.96 518.492 191.119 516.902 191.437C516.266 191.437 515.629 191.755 515.152 192.232L513.085 194.14C512.608 193.504 512.13 192.709 511.653 191.755C513.085 196.844 517.697 200.502 522.946 200.502C528.512 200.502 533.125 196.526 534.397 191.278C534.715 191.278 535.033 191.278 535.351 191.278L534.715 181.735ZM525.172 195.89C520.242 198.117 516.902 196.367 515.948 195.254C515.789 194.936 515.789 194.618 515.948 194.299L516.743 193.345C517.697 192.232 520.719 192.709 521.991 192.709C523.264 192.709 524.377 193.822 525.172 194.618C525.49 195.095 525.49 195.731 525.172 195.89Z" fill="#6D3744"/>
<path d="M389.981 475.812C387.914 412.988 379.643 297.998 379.643 297.998H316.979C316.979 297.998 308.709 412.988 306.641 475.812H324.454C324.454 475.812 344.653 340.781 348.629 328.376C352.606 340.781 372.327 475.812 372.327 475.812H389.981Z" fill="#383952"/>
<path d="M389.982 475.812H384.415L366.284 297.998H379.644C379.485 298.157 387.755 413.147 389.982 475.812Z" fill="#5725A5"/>
<path d="M389.982 475.812H384.415L366.284 297.998H379.644C379.485 298.157 387.755 413.147 389.982 475.812Z" fill="#464866"/>
<path d="M308.55 475.812C304.733 483.446 286.761 487.263 286.761 487.263C286.761 487.263 285.488 489.49 287.397 492.353C289.464 495.215 308.232 493.625 310.618 493.148C313.003 492.671 314.594 490.762 314.594 490.762C314.594 490.762 316.184 492.512 316.98 492.989C317.934 493.466 322.705 492.512 322.705 492.512C323.819 489.49 322.864 477.72 322.546 475.812H308.55V475.812Z" fill="#2A2B3D"/>
<path d="M387.755 475.812C391.573 483.446 409.545 487.263 409.545 487.263C409.545 487.263 410.817 489.49 408.909 492.353C406.841 495.215 388.074 493.625 385.688 493.148C383.302 492.671 381.712 490.762 381.712 490.762C381.712 490.762 380.121 492.512 379.326 492.989C378.372 493.466 373.6 492.512 373.6 492.512C372.487 489.49 373.441 477.72 373.759 475.812H387.755V475.812Z" fill="#2A2B3D"/>
<path d="M361.353 198.594L357.218 197.48H350.538H348.789H342.109L337.973 198.594L327.317 297.839H348.789H350.538H372.009L361.353 198.594Z" fill="white"/>
<path d="M337.973 198.594C337.973 198.594 311.731 205.91 307.436 211.954C303.46 217.679 288.351 248.693 289.305 267.302C289.464 269.369 291.214 270.801 293.122 270.483L313.162 266.029L306.005 305.95C306.005 305.95 326.681 310.085 338.291 309.449L337.973 198.594Z" fill="#D35473"/>
<path d="M361.352 198.594C361.352 198.594 387.595 205.91 391.889 211.954C395.865 217.679 411.452 247.58 410.339 266.029C410.18 268.097 408.43 269.528 406.522 269.21L386.164 266.029L393.321 305.95C393.321 305.95 372.804 310.562 361.193 309.926L361.352 198.594Z" fill="#D35473"/>
<path d="M357.058 207.659L349.742 203.524L342.903 207.659L347.198 213.703C347.198 213.703 343.062 275.095 342.903 281.775C342.903 282.729 345.448 285.91 347.834 288.614C348.47 289.409 349.106 290.045 349.742 290.682C350.378 290.045 351.015 289.409 351.651 288.614C354.037 285.91 356.581 282.729 356.581 281.775C356.422 275.254 352.764 214.021 352.764 214.021L357.058 207.659Z" fill="#E4738F"/>
<path d="M313.162 266.189L375.19 255.851L371.851 241.377L301.234 248.375L313.162 266.189Z" fill="#D35473"/>
<path d="M374.236 254.26C374.236 254.26 383.302 251.397 386.324 251.715C389.346 252.193 387.914 241.696 371.851 241.377L374.236 254.26Z" fill="#FFA683"/>
<path d="M334.156 244.876C334.156 244.876 328.908 239.469 320.796 240.264C316.343 240.582 313.003 246.944 313.003 246.944L334.156 244.876Z" fill="#FFA683"/>
<path opacity="0.35" d="M310.458 281.298L337.973 262.053L313.162 266.188L310.458 281.298Z" fill="#B6405D"/>
<path opacity="0.35" d="M313.002 246.944L308.072 246.785L318.092 231.516L313.002 246.944Z" fill="#B6405D"/>
<path opacity="0.35" d="M386.483 251.874C386.483 251.874 391.572 252.033 392.208 251.238C392.686 250.443 385.688 233.266 385.688 233.266C385.688 233.266 390.936 250.443 386.483 251.874Z" fill="#B6405D"/>
<path opacity="0.35" d="M393.321 306.109L389.186 283.525L386.005 266.189L361.193 261.894V263.326L379.325 276.527L384.732 307.859C389.822 306.904 393.321 306.109 393.321 306.109Z" fill="#B6405D"/>
<path d="M348.312 328.376C344.813 331.239 342.586 335.374 341.791 339.827L318.093 475.812H324.296C324.296 475.812 340.996 362.253 348.312 328.376Z" fill="#464866"/>
<path d="M356.264 196.844L350.061 200.661L343.381 196.844V184.439H356.264V196.844Z" fill="#FFA683"/>
<path d="M333.361 174.26C333.361 174.26 330.816 164.558 333.361 159.786C336.065 154.856 340.518 149.448 344.971 152.47C344.971 152.47 347.675 148.971 357.059 151.198C366.443 153.425 371.055 153.584 374.395 151.834C377.735 150.085 375.19 167.262 368.192 168.216C368.192 168.216 367.556 172.669 366.284 174.26C364.852 175.85 348.152 176.645 348.152 176.645L333.361 174.26Z" fill="#6D3744"/>
<path d="M346.88 161.695C346.403 161.218 345.449 163.444 343.222 165.512C340.519 167.739 337.02 169.329 337.02 169.329V178.713C337.02 178.713 338.928 191.437 350.379 191.437C359.763 191.437 363.103 178.872 363.103 178.872V170.92V168.057C363.103 167.739 351.811 167.421 346.88 161.695Z" fill="#FFA683"/>
<path d="M356.264 189.369V191.914C354.674 193.027 352.606 193.822 350.22 193.822C347.357 193.822 345.131 193.027 343.222 191.755V189.21C344.972 190.482 347.357 191.278 350.22 191.278C352.606 191.278 354.674 190.482 356.264 189.369Z" fill="#F48260"/>
<path d="M342.268 175.373C342.268 172.828 340.2 170.76 337.655 170.76C335.111 170.76 333.043 172.828 333.043 175.373C333.043 177.918 335.747 180.621 338.292 180.621C340.995 180.78 342.268 177.918 342.268 175.373Z" fill="#FFA683"/>
<path d="M358.65 175.373C358.65 172.828 360.717 170.76 363.262 170.76C365.807 170.76 367.875 172.828 367.875 175.373C367.875 177.918 365.171 180.621 362.626 180.621C360.081 180.621 358.65 177.918 358.65 175.373Z" fill="#FFA683"/>
<path d="M170.18 479.152V489.49C170.18 492.194 168.272 494.261 165.886 494.261H134.872C133.123 494.261 132.486 491.876 133.918 490.762C138.053 487.74 151.572 483.605 156.025 480.583L170.18 479.152Z" fill="#61648A"/>
<path d="M178.769 376.567C176.701 404.082 171.293 475.971 169.862 479.947C168.113 484.877 154.435 482.333 155.23 480.901C155.548 480.424 158.093 480.106 160.001 476.13C160.637 474.857 160.319 467.382 160.319 465.951C159.524 453.704 155.071 391.04 153.798 372.272C160.16 374.022 169.067 375.931 178.769 376.567Z" fill="#FFA683"/>
<path d="M191.492 479.152V489.49C191.492 492.193 193.4 494.261 195.786 494.261H226.959C228.709 494.261 229.345 491.875 227.913 490.762C223.778 487.74 210.259 483.605 205.806 480.583L191.492 479.152Z" fill="#61648A"/>
<path d="M206.601 480.742C207.397 482.174 193.719 484.878 191.969 479.788C190.538 475.812 185.13 404.082 183.062 376.567C191.174 376.726 199.762 375.772 208.192 373.068C206.919 393.108 202.466 453.704 201.671 465.792C201.512 467.064 201.353 474.699 201.989 475.971C203.579 479.947 206.283 480.265 206.601 480.742Z" fill="#FFA683"/>
<path d="M147.913 289.568L148.073 289.886L146.641 292.908C147.118 291.636 147.595 290.523 147.913 289.568Z" fill="#BA95F4"/>
<path d="M219.961 368.137C185.448 387.223 142.188 368.137 142.188 368.137C135.667 334.42 141.87 307.223 146.8 292.908C147.277 291.636 147.595 290.523 147.913 289.569C149.663 285.115 150.935 282.411 151.253 281.775C153.162 283.048 176.224 297.521 207.715 281.775H208.351C208.351 281.775 208.351 281.616 208.192 281.616H208.351C224.415 322.332 219.961 368.137 219.961 368.137Z" fill="#433E39"/>
<path opacity="0.35" d="M219.961 368.137C213.758 371.636 207.237 373.704 200.717 375.135C209.146 352.551 201.512 301.974 198.649 285.592C201.512 284.638 204.693 283.365 207.715 281.775H208.351C208.351 281.775 208.351 281.616 208.192 281.616H208.351C224.414 322.332 219.961 368.137 219.961 368.137Z" fill="#433E39"/>
<path d="M178.769 376.567C176.701 404.082 171.294 475.971 169.862 479.947C169.385 481.22 168.113 482.015 166.363 482.492C171.771 464.202 171.294 378.953 171.294 378.953C165.568 379.112 158.411 376.249 153.64 374.181C153.48 372.114 153.64 373.863 153.48 372.273C160.16 374.022 169.067 375.931 178.769 376.567Z" fill="#F48260"/>
<path d="M201.83 475.971C201.353 474.699 201.512 467.223 201.512 465.792C202.307 453.863 206.601 393.108 208.033 373.068C207.079 373.386 205.965 373.704 205.011 373.863C204.534 374.022 203.898 374.181 203.42 374.34C202.784 374.499 202.307 374.658 201.671 374.817C195.309 376.09 189.106 376.726 183.062 376.567C183.062 377.203 183.222 377.839 183.222 378.634C186.721 378.634 195.309 378.475 200.558 377.68C199.762 393.267 195.786 472.631 198.49 477.879C199.285 479.47 201.671 480.742 204.852 481.856C206.124 481.538 206.919 481.06 206.601 480.583C206.283 480.265 203.58 479.947 201.83 475.971Z" fill="#F48260"/>
<path d="M259.247 205.433C259.247 205.433 264.655 197.003 266.245 196.685C267.836 196.367 265.927 200.343 265.927 200.343C265.927 200.343 271.812 196.844 276.106 197.799C280.4 198.912 267.199 205.274 265.45 209.409C265.609 209.409 259.088 205.433 259.247 205.433Z" fill="#FFA683"/>
<path d="M154.912 297.203C154.912 296.566 148.391 291.159 147.914 290.841C147.914 290.682 147.755 290.682 147.755 290.523L143.62 299.27C143.62 299.27 153.64 307.7 154.753 306.904C155.389 306.268 153.003 302.61 151.254 297.521C152.844 297.203 154.912 297.839 154.912 297.203Z" fill="#FFA683"/>
<path d="M210.419 242.332C211.533 244.717 212.487 247.739 212.328 250.761C212.169 253.147 211.215 255.692 208.829 257.918C208.352 258.395 208.034 258.713 207.716 259.191C207.557 259.35 207.557 259.35 207.557 259.509C201.513 267.779 207.239 279.708 208.193 281.457C208.193 281.457 208.193 281.616 208.352 281.616H207.716C176.224 297.362 153.163 282.888 151.254 281.616H151.095C151.572 280.662 158.093 268.097 151.89 259.509C151.413 259.031 151.095 258.395 150.459 257.918C145.369 252.829 146.801 244.717 148.868 240.423L131.373 265.075L148.073 289.887L143.302 300.065C143.302 300.065 110.061 268.574 110.538 266.189C111.015 263.803 137.099 217.679 145.847 211.477C154.435 205.274 171.771 204.479 171.771 204.479H184.336C184.336 204.479 197.219 203.842 207.875 211.318L229.823 233.266L258.452 204.956L266.086 209.568C266.086 209.568 240.161 244.717 230.936 255.214C229.346 256.964 226.801 257.123 225.052 255.532L210.419 242.332Z" fill="#61648A"/>
<path d="M229.824 252.67C224.416 256.805 201.513 227.699 205.171 234.061C208.829 240.423 202.309 248.693 196.424 263.008C191.334 275.254 196.742 283.525 198.173 285.592C201.195 284.638 204.376 283.207 207.716 281.616H208.352C208.352 281.616 208.352 281.457 208.193 281.457C207.239 279.708 201.513 267.779 207.557 259.509C207.557 259.35 207.716 259.35 207.716 259.191C208.034 258.713 208.511 258.395 208.829 257.918C211.056 255.692 212.01 253.147 212.328 250.761C212.647 247.739 211.692 244.717 210.42 242.332L225.052 255.532C226.802 257.123 229.505 256.964 230.937 255.214C240.162 244.717 266.086 209.568 266.086 209.568C266.086 209.091 235.867 248.057 229.824 252.67Z" fill="#525576"/>
<path d="M149.028 240.423C149.028 240.423 152.209 230.403 154.277 228.017C154.277 228.017 128.193 261.417 126.921 265.234C125.648 269.051 148.074 290.045 148.074 290.045L131.374 265.234L149.028 240.423Z" fill="#525576"/>
<path d="M149.028 240.423C148.392 241.695 147.915 243.127 147.597 244.717L149.028 240.423Z" fill="#976CEA"/>
<g opacity="0.25">
<path opacity="0.25" d="M190.699 204.956H167.478C164.933 205.274 161.434 205.751 157.776 206.705H198.333C195.47 205.751 192.925 205.115 190.699 204.956Z" fill="white"/>
<path opacity="0.25" d="M258.452 204.956L256.861 206.546H261.156L258.452 204.956Z" fill="white"/>
<path opacity="0.25" d="M263.064 213.703H249.704L247.955 215.453H261.792C262.269 214.817 262.746 214.181 263.064 213.703Z" fill="white"/>
<path opacity="0.25" d="M210.26 213.703H143.461C142.984 214.181 142.506 214.817 142.029 215.453H212.01L210.26 213.703Z" fill="white"/>
<path opacity="0.25" d="M256.543 222.451H240.798L239.048 224.2H255.271C255.589 223.564 256.066 223.087 256.543 222.451Z" fill="white"/>
<path opacity="0.25" d="M219.009 222.451H136.623C136.305 222.928 135.827 223.564 135.509 224.2H220.758L219.009 222.451Z" fill="white"/>
<path opacity="0.25" d="M227.915 231.198H130.738C130.42 231.834 129.943 232.312 129.625 232.948H229.506L227.915 231.198Z" fill="white"/>
<path opacity="0.25" d="M249.863 231.198H231.891L230.142 232.948H248.591C249.068 232.312 249.386 231.834 249.863 231.198Z" fill="white"/>
<path opacity="0.25" d="M149.028 240.423C148.869 240.9 148.71 241.218 148.392 241.696H241.752C242.229 241.059 242.706 240.582 243.024 239.946H125.33C125.012 240.582 124.694 241.059 124.375 241.696H148.232L149.028 240.423Z" fill="white"/>
<path opacity="0.25" d="M142.984 248.853H120.081C119.763 249.489 119.445 249.966 119.127 250.602H141.871L142.984 248.853Z" fill="white"/>
<path opacity="0.25" d="M219.644 250.602H234.913C235.39 250.125 235.867 249.489 236.344 248.853H217.736L219.644 250.602Z" fill="white"/>
<path opacity="0.25" d="M147.119 250.602H212.328C212.328 249.966 212.328 249.489 212.328 248.853H147.119C147.119 249.33 147.119 249.966 147.119 250.602Z" fill="white"/>
<path opacity="0.25" d="M136.781 257.6H114.992C114.674 258.236 114.356 258.713 114.038 259.35H135.509L136.781 257.6Z" fill="#525576"/>
<path opacity="0.25" d="M150.459 257.918C150.936 258.395 151.254 258.872 151.573 259.35H207.557C207.557 259.35 207.557 259.35 207.557 259.191C207.875 258.713 208.352 258.395 208.67 257.918C208.829 257.759 208.829 257.759 208.988 257.6H150.141C150.3 257.759 150.459 257.918 150.459 257.918Z" fill="white"/>
<path opacity="0.25" d="M132.487 266.348H110.539C110.698 266.666 111.016 267.302 111.652 268.097H133.6L132.487 266.348Z" fill="white"/>
<path opacity="0.25" d="M154.595 268.097H204.854C204.854 267.461 204.854 266.984 205.013 266.348H154.436C154.595 266.984 154.595 267.62 154.595 268.097Z" fill="white"/>
<path opacity="0.25" d="M153.163 276.845H206.284C206.125 276.368 205.966 275.731 205.807 275.095H153.64C153.481 275.731 153.322 276.368 153.163 276.845Z" fill="white"/>
<path opacity="0.25" d="M138.372 275.254H118.014C118.491 275.731 119.127 276.367 119.605 277.004H139.326L138.372 275.254Z" fill="white"/>
<path opacity="0.25" d="M159.366 285.751H198.173C199.605 285.274 201.195 284.638 202.786 284.002H155.39C156.503 284.479 157.775 285.115 159.366 285.751Z" fill="white"/>
<path opacity="0.25" d="M144.257 284.002H126.762C127.398 284.638 127.875 285.115 128.511 285.751H145.37L144.257 284.002Z" fill="white"/>
<path opacity="0.25" d="M146.801 292.749H135.827C136.463 293.385 137.1 293.863 137.577 294.499H146.006L146.801 292.749Z" fill="white"/>
</g>
<path d="M183.381 205.115L177.655 208.614L171.453 205.115V193.504H183.381V205.115Z" fill="#FFA683"/>
<path d="M183.381 198.117V205.115L181.949 206.069C181.949 205.751 182.108 205.433 182.108 205.115C182.744 201.934 183.222 199.389 183.381 198.117Z" fill="#FFA683"/>
<path d="M189.743 179.349V188.097C189.743 188.097 187.993 194.618 183.381 197.958C184.176 194.459 188.947 183.484 189.743 179.349Z" fill="#FFA683"/>
<path d="M183.381 198.117V200.502C181.79 201.616 180.041 202.411 177.814 202.411C175.11 202.411 173.042 201.616 171.293 200.502V198.117C172.883 199.23 175.11 200.025 177.814 200.025C180.041 200.025 181.949 199.23 183.381 198.117Z" fill="#F48260"/>
<path d="M190.061 180.94H189.901V180.781V178.077C189.901 178.077 173.043 179.19 170.021 172.351C169.703 171.715 165.567 179.508 165.567 179.508V181.099C163.659 181.417 162.068 183.166 162.068 185.234C162.068 187.302 163.977 189.369 165.885 190.005C166.84 193.345 169.862 200.025 177.814 200.025C184.335 200.025 187.675 193.504 189.106 190.164H189.265C191.651 190.164 194.196 187.62 194.196 185.234C194.196 182.848 192.287 180.94 190.061 180.94Z" fill="#FFA683"/>
<path d="M189.107 190.164H189.266C191.651 190.164 194.196 187.62 194.196 185.234C194.196 182.848 192.288 180.94 189.902 180.94H189.743V178.077C189.743 178.077 172.884 179.19 169.862 172.351C169.544 171.715 165.409 179.508 165.409 179.508V181.099C163.5 181.417 161.91 183.166 161.91 185.234C161.91 187.302 163.818 189.369 165.727 190.005C166.363 192.232 167.953 195.89 171.293 198.117V203.047C151.095 190.96 153.48 164.399 163.5 159.468C167.953 157.242 170.18 158.991 170.18 158.991C186.085 144.995 198.809 161.377 202.785 167.739C208.033 176.327 229.504 232.312 207.238 239.946C166.522 253.783 179.405 202.252 183.222 198.276C186.721 194.618 188.789 191.596 189.107 190.164Z" fill="#6D3744"/>
</svg>
