<svg width="42" height="53" viewBox="0 0 42 53" fill="none" xmlns="http://www.w3.org/2000/svg">
<path d="M12 38.1544L19.995 46.1544L41.9925 24.1519H25.9975L12 38.1544Z" fill="#39CEFD"/>
<path d="M25.9975 0.157227H41.9925L8 34.1547L0 26.1547L25.9975 0.157227Z" fill="#39CEFD"/>
<path d="M19.9951 46.1548L25.9976 52.1523H41.9926L27.9951 38.1548L19.9951 46.1548Z" fill="#03569B"/>
<path d="M31.8599 42.0446L27.9951 38.1548L19.9951 46.1548L31.8599 42.0446Z" fill="url(#paint0_linear_304_4)"/>
<path d="M11.9985 38.1516L19.9987 30.1514L27.9994 38.1516L19.9987 46.1519L11.9985 38.1516Z" fill="#16B9FD"/>
<path d="M41.9925 24.1522L27.995 38.1547L41.9925 52.1572H25.9975L11.995 38.1547L25.9975 24.1522H41.9925ZM25.9975 0.157227L0 26.1547L8 34.1547L41.9925 0.157227H25.9975Z" fill="url(#paint1_radial_304_4)"/>
<defs>
<linearGradient id="paint0_linear_304_4" x1="22.3298" y1="47.6987" x2="28.288" y2="41.7405" gradientUnits="userSpaceOnUse">
<stop stop-color="#1A237E" stop-opacity="0.4"/>
<stop offset="1" stop-color="#1A237E" stop-opacity="0"/>
</linearGradient>
<radialGradient id="paint1_radial_304_4" cx="0" cy="0" r="1" gradientUnits="userSpaceOnUse" gradientTransform="translate(1.17971 3.70139) scale(63.6156 63.6156)">
<stop stop-color="white" stop-opacity="0.1"/>
<stop offset="1" stop-color="white" stop-opacity="0"/>
</radialGradient>
</defs>
</svg>
