<svg width="254" height="38" viewBox="0 0 254 38" fill="none" xmlns="http://www.w3.org/2000/svg">
<path d="M1.75693 0.395595C1.29891 0.0869807 0.677439 0.208094 0.368825 0.666111C0.0602126 1.12412 0.181324 1.7456 0.639337 2.05421L1.75693 0.395595ZM252.983 14.6821C253.408 14.3299 253.467 13.6995 253.115 13.2741L247.376 6.34142C247.024 5.916 246.393 5.85663 245.968 6.20881C245.543 6.56099 245.483 7.19137 245.835 7.61679L250.937 13.7792L244.775 18.8807C244.349 19.2328 244.29 19.8632 244.642 20.2886C244.994 20.7141 245.624 20.7734 246.05 20.4212L252.983 14.6821ZM3.18079 3.74991C3.64161 4.05432 4.26195 3.92752 4.56636 3.4667C4.87077 3.00589 4.74398 2.38555 4.28316 2.08114L3.18079 3.74991ZM9.26489 5.30576C8.79841 5.01008 8.18057 5.14854 7.8849 5.61502C7.58923 6.0815 7.7277 6.69934 8.19417 6.995L9.26489 5.30576ZM13.2434 10.1255C13.7157 10.4117 14.3306 10.2608 14.6169 9.78852C14.9031 9.3162 14.7522 8.70126 14.2799 8.41504L13.2434 10.1255ZM19.3931 11.439C18.9146 11.1631 18.3031 11.3273 18.0272 11.8057C17.7513 12.2842 17.9155 12.8957 18.394 13.1715L19.3931 11.439ZM23.5814 16.084C24.0661 16.3487 24.6736 16.1703 24.9383 15.6856C25.203 15.2009 25.0247 14.5933 24.5399 14.3287L23.5814 16.084ZM29.7717 17.1022C29.2805 16.8497 28.6777 17.0432 28.4252 17.5344C28.1727 18.0256 28.3662 18.6285 28.8574 18.8809L29.7717 17.1022ZM34.209 21.5422C34.7068 21.7813 35.3043 21.5716 35.5434 21.0738C35.7826 20.576 35.5729 19.9785 35.075 19.7394L34.209 21.5422ZM40.4088 22.2091C39.9043 21.9843 39.3131 22.2111 39.0884 22.7156C38.8636 23.2201 39.0904 23.8112 39.5949 24.036L40.4088 22.2091ZM45.1263 26.3987C45.6375 26.6076 46.2213 26.3625 46.4303 25.8513C46.6392 25.34 46.3941 24.7562 45.8828 24.5473L45.1263 26.3987ZM51.3469 26.677C50.8291 26.485 50.2536 26.7492 50.0617 27.267C49.8697 27.7849 50.1339 28.3603 50.6517 28.5523L51.3469 26.677ZM56.3165 30.5398C56.8408 30.7133 57.4065 30.4289 57.58 29.9046C57.7534 29.3802 57.469 28.8145 56.9447 28.6411L56.3165 30.5398ZM62.5911 30.3933C62.0606 30.2397 61.506 30.5451 61.3523 31.0756C61.1987 31.6061 61.5042 32.1607 62.0346 32.3144L62.5911 30.3933ZM67.7768 33.8569C68.313 33.9896 68.8551 33.6625 68.9878 33.1264C69.1205 32.5903 68.7934 32.0482 68.2573 31.9155L67.7768 33.8569ZM74.0304 33.2184C73.4892 33.1081 72.9611 33.4574 72.8508 33.9986C72.7405 34.5398 73.0898 35.0679 73.631 35.1782L74.0304 33.2184ZM79.5302 36.2495C80.0756 36.3364 80.5882 35.9647 80.6751 35.4193C80.762 34.8739 80.3903 34.3613 79.8449 34.2744L79.5302 36.2495ZM85.6771 35.0732C85.1284 35.0103 84.6326 35.4041 84.5698 35.9528C84.5069 36.5015 84.9008 36.9973 85.4495 37.0602L85.6771 35.0732ZM91.3906 37.6075C91.9415 37.646 92.4193 37.2305 92.4578 36.6795C92.4962 36.1286 92.0807 35.6508 91.5298 35.6124L91.3906 37.6075ZM97.4347 35.8922C96.8826 35.8783 96.4238 36.3146 96.4099 36.8667C96.396 37.4188 96.8323 37.8777 97.3844 37.8916L97.4347 35.8922ZM103.375 37.9111C103.928 37.9009 104.367 37.4451 104.357 36.8929C104.347 36.3407 103.891 35.9013 103.339 35.9114L103.375 37.9111ZM109.232 35.6786C108.681 35.7118 108.261 36.1857 108.294 36.737C108.327 37.2883 108.801 37.7082 109.352 37.675L109.232 35.6786ZM115.31 37.1964C115.86 37.1415 116.261 36.6515 116.206 36.102C116.151 35.5524 115.661 35.1514 115.111 35.2064L115.31 37.1964ZM120.972 34.5113C120.425 34.5861 120.042 35.0904 120.117 35.6376C120.192 36.1847 120.696 36.5677 121.243 36.4928L120.972 34.5113ZM127.149 35.5847C127.694 35.492 128.06 34.9755 127.968 34.4311C127.875 33.8866 127.358 33.5204 126.814 33.613L127.149 35.5847ZM132.631 32.5354C132.089 32.6435 131.738 33.1703 131.846 33.7118C131.954 34.2534 132.481 34.6048 133.023 34.4967L132.631 32.5354ZM138.858 33.2561C139.397 33.135 139.736 32.6 139.615 32.0612C139.494 31.5223 138.959 31.1837 138.42 31.3048L138.858 33.2561ZM144.185 29.9481C143.649 30.0796 143.32 30.621 143.452 31.1574C143.583 31.6938 144.125 32.022 144.661 31.8906L144.185 29.9481ZM150.436 30.4282C150.97 30.2889 151.291 29.7428 151.151 29.2084C151.012 28.6739 150.466 28.3535 149.932 28.4928L150.436 30.4282ZM155.666 26.9667C155.133 27.1111 154.818 27.6603 154.962 28.1934C155.107 28.7265 155.656 29.0416 156.189 28.8972L155.666 26.9667ZM161.928 27.3255C162.461 27.1786 162.773 26.6279 162.626 26.0955C162.479 25.5631 161.929 25.2507 161.396 25.3976L161.928 27.3255ZM167.122 23.8147C166.59 23.9616 166.277 24.5124 166.424 25.0447C166.571 25.5771 167.122 25.8895 167.654 25.7425L167.122 23.8147ZM173.379 24.1736C173.912 24.029 174.227 23.4797 174.083 22.9467C173.938 22.4136 173.389 22.0987 172.856 22.2433L173.379 24.1736ZM178.605 20.7092C178.071 20.8491 177.751 21.3955 177.891 21.9298C178.031 22.4641 178.577 22.7839 179.111 22.6441L178.605 20.7092ZM184.858 21.1785C185.394 21.0458 185.721 20.5035 185.588 19.9674C185.455 19.4314 184.913 19.1044 184.377 19.2372L184.858 21.1785ZM190.178 17.8508C189.639 17.9744 189.303 18.511 189.427 19.0493C189.55 19.5876 190.087 19.9237 190.625 19.8001L190.178 17.8508ZM196.414 18.5316C196.954 18.4191 197.301 17.8896 197.189 17.3489C197.076 16.8082 196.547 16.461 196.006 16.5735L196.414 18.5316ZM201.854 15.4281C201.311 15.5277 200.951 16.0487 201.051 16.592C201.15 17.1352 201.671 17.4949 202.215 17.3954L201.854 15.4281ZM208.042 16.4067C208.588 16.3218 208.962 15.8105 208.877 15.2648C208.792 14.7191 208.281 14.3456 207.735 14.4305L208.042 16.4067ZM213.65 13.5971C213.102 13.666 212.713 14.1662 212.782 14.7141C212.851 15.2621 213.351 15.6504 213.899 15.5815L213.65 13.5971ZM219.788 14.9333C220.338 14.8815 220.741 14.3939 220.69 13.844C220.638 13.2941 220.15 12.8903 219.6 12.9421L219.788 14.9333ZM225.55 12.4799C224.998 12.5136 224.579 12.9878 224.612 13.539C224.646 14.0903 225.12 14.5099 225.672 14.4762L225.55 12.4799ZM231.562 14.2157C232.114 14.2006 232.549 13.7409 232.534 13.1888C232.519 12.6367 232.06 12.2014 231.508 12.2164L231.562 14.2157ZM237.488 12.1567C236.936 12.1527 236.485 12.5971 236.481 13.1494C236.477 13.7017 236.921 14.1526 237.474 14.1567L237.488 12.1567ZM243.404 14.3036C243.956 14.3269 244.422 13.8985 244.446 13.3467C244.469 12.7949 244.041 12.3287 243.489 12.3054L243.404 14.3036ZM249.423 12.6585C248.873 12.6162 248.392 13.0284 248.35 13.5791C248.308 14.1297 248.72 14.6104 249.27 14.6526L249.423 12.6585ZM0.639337 2.05421C1.4904 2.62767 2.33754 3.19287 3.18079 3.74991L4.28316 2.08114C3.44504 1.52749 2.60298 0.965677 1.75693 0.395595L0.639337 2.05421ZM8.19417 6.995C9.893 8.07179 11.5759 9.11502 13.2434 10.1255L14.2799 8.41504C12.6241 7.41165 10.9526 6.3755 9.26489 5.30576L8.19417 6.995ZM18.394 13.1715C20.14 14.1784 21.869 15.1489 23.5814 16.084L24.5399 14.3287C22.8414 13.4011 21.126 12.4382 19.3931 11.439L18.394 13.1715ZM28.8574 18.8809C30.6595 19.8072 32.4432 20.6939 34.209 21.5422L35.075 19.7394C33.3257 18.899 31.5581 18.0204 29.7717 17.1022L28.8574 18.8809ZM39.5949 24.036C41.4583 24.8662 43.3018 25.6532 45.1263 26.3987L45.8828 24.5473C44.0779 23.8098 42.2535 23.0309 40.4088 22.2091L39.5949 24.036ZM50.6517 28.5523C52.5605 29.2599 54.4484 29.9218 56.3165 30.5398L56.9447 28.6411C55.0994 28.0305 53.2338 27.3765 51.3469 26.677L50.6517 28.5523ZM62.0346 32.3144C63.9695 32.8748 65.8831 33.3882 67.7768 33.8569L68.2573 31.9155C66.3893 31.4532 64.5009 30.9465 62.5911 30.3933L62.0346 32.3144ZM73.631 35.1782C75.6186 35.5833 77.5845 35.9395 79.5302 36.2495L79.8449 34.2744C77.9276 33.9689 75.9899 33.6178 74.0304 33.2184L73.631 35.1782ZM85.4495 37.0602C87.4501 37.2893 89.4299 37.4707 91.3906 37.6075L91.5298 35.6124C89.5984 35.4776 87.648 35.2989 85.6771 35.0732L85.4495 37.0602ZM97.3844 37.8916C99.4001 37.9422 101.396 37.9475 103.375 37.9111L103.339 35.9114C101.388 35.9473 99.4207 35.9421 97.4347 35.8922L97.3844 37.8916ZM109.352 37.675C111.354 37.5543 113.339 37.3934 115.31 37.1964L115.111 35.2064C113.166 35.4008 111.207 35.5596 109.232 35.6786L109.352 37.675ZM121.243 36.4928C123.224 36.2219 125.192 35.9178 127.149 35.5847L126.814 33.613C124.877 33.9427 122.93 34.2435 120.972 34.5113L121.243 36.4928ZM133.023 34.4967C134.976 34.1068 136.92 33.6918 138.858 33.2561L138.42 31.3048C136.496 31.7373 134.567 32.1489 132.631 32.5354L133.023 34.4967ZM144.661 31.8906C146.589 31.418 148.513 30.929 150.436 30.4282L149.932 28.4928C148.017 28.9916 146.102 29.4781 144.185 29.9481L144.661 31.8906ZM156.189 28.8972C158.101 28.3795 160.013 27.8541 161.928 27.3255L161.396 25.3976C159.482 25.9258 157.573 26.4502 155.666 26.9667L156.189 28.8972ZM167.654 25.7425C169.557 25.2173 171.464 24.693 173.379 24.1736L172.856 22.2433C170.937 22.7638 169.026 23.289 167.122 23.8147L167.654 25.7425ZM179.111 22.6441C181.017 22.1455 182.932 21.6557 184.858 21.1785L184.377 19.2372C182.441 19.7168 180.518 20.2088 178.605 20.7092L179.111 22.6441ZM190.625 19.8001C192.541 19.36 194.47 18.936 196.414 18.5316L196.006 16.5735C194.048 16.9809 192.106 17.408 190.178 17.8508L190.625 19.8001ZM202.215 17.3954C204.14 17.0425 206.082 16.7118 208.042 16.4067L207.735 14.4305C205.756 14.7385 203.797 15.0722 201.854 15.4281L202.215 17.3954ZM213.899 15.5815C215.843 15.337 217.805 15.1198 219.788 14.9333L219.6 12.9421C217.596 13.1307 215.613 13.3501 213.65 13.5971L213.899 15.5815ZM225.672 14.4762C227.614 14.3575 229.577 14.2697 231.562 14.2157L231.508 12.2164C229.499 12.2711 227.514 12.3598 225.55 12.4799L225.672 14.4762ZM237.474 14.1567C239.428 14.171 241.405 14.2192 243.404 14.3036L243.489 12.3054C241.465 12.22 239.466 12.1712 237.488 12.1567L237.474 14.1567ZM249.27 14.6526C250.258 14.7284 251.252 14.8132 252.251 14.9074L252.439 12.9162C251.428 12.821 250.423 12.7352 249.423 12.6585L249.27 14.6526Z" fill="black"/>
</svg>
