<svg width="59" height="53" viewBox="0 0 59 53" fill="none" xmlns="http://www.w3.org/2000/svg">
<path d="M53.2701 36.8441C53.2683 36.8418 53.2666 36.8401 53.2646 36.8379C53.3498 36.5481 53.4377 36.2601 53.5122 35.963C56.7072 23.2341 48.9095 8.18499 35.7142 0.26123C41.4966 8.09996 44.0534 17.5945 41.7818 25.8976C41.5792 26.6382 41.3356 27.349 41.0664 28.0398C40.7743 27.8478 40.4062 27.63 39.9118 27.3574C39.9118 27.3574 26.786 19.2532 12.5597 4.91892C12.1864 4.54266 20.1457 16.2949 29.1786 25.838C24.9229 23.4496 13.0627 14.8205 5.55447 7.94871C6.47693 9.48706 7.57411 10.9684 8.78016 12.3945C15.0502 20.346 23.2272 30.1569 33.0235 37.6905C26.1405 41.9026 16.4147 42.2301 6.7311 37.6949C4.33597 36.5725 2.08432 35.2182 0 33.6794C4.09903 40.2358 10.4121 45.8925 18.0958 49.1949C27.2588 53.1326 36.3708 52.8656 43.1574 49.2594L43.152 49.2672C43.183 49.2476 43.2224 49.2262 43.2546 49.2064C43.5332 49.0566 43.8098 48.904 44.0803 48.7429C47.341 47.0505 53.7815 45.3334 57.2385 52.0594C58.0851 53.7055 59.8841 44.9821 53.2701 36.8441Z" fill="#F05138"/>
</svg>
